<?xml version="1.0" standalone="no"?>
<!DOCTYPE svg PUBLIC "-//W3C//DTD SVG 20010904//EN"
 "http://www.w3.org/TR/2001/REC-SVG-20010904/DTD/svg10.dtd">
<svg version="1.0" xmlns="http://www.w3.org/2000/svg"
 width="180.000000pt" height="180.000000pt" viewBox="0 0 180.000000 180.000000"
 preserveAspectRatio="xMidYMid meet">
<metadata>
Created by potrace 1.16, written by Peter Selinger 2001-2019
</metadata><g><rect x="0" y="0" width="180" height="180" fill="#ffffff" />
<g transform="translate(0.000000,180.000000) scale(0.033333,-0.033333)"
fill="#000000" stroke="none">
<path d="M510 4365 l0 -525 525 0 525 0 0 525 0 525 -525 0 -525 0 0 -525z
m900 0 l0 -375 -375 0 -375 0 0 375 0 375 375 0 375 0 0 -375z"/>
<path d="M810 4365 l0 -225 225 0 225 0 0 225 0 225 -225 0 -225 0 0 -225z"/>
<path d="M1710 4815 l0 -75 75 0 75 0 0 -75 0 -75 -75 0 -75 0 0 -225 0 -225
75 0 75 0 0 75 0 75 150 0 150 0 0 -75 0 -75 -75 0 -75 0 0 -375 0 -375 -150
0 -150 0 0 75 0 75 75 0 75 0 0 75 0 75 -75 0 -75 0 0 -75 0 -75 -75 0 -75 0
0 75 0 75 -75 0 -75 0 0 -75 0 -75 -150 0 -150 0 0 75 0 75 -300 0 -300 0 0
-600 0 -600 75 0 75 0 0 -150 0 -150 -75 0 -75 0 0 -75 0 -75 75 0 75 0 0 75
0 75 75 0 75 0 0 -150 0 -150 -75 0 -75 0 0 -75 0 -75 75 0 75 0 0 75 0 75 75
0 75 0 0 -75 0 -75 150 0 150 0 0 75 0 75 75 0 75 0 0 -75 0 -75 150 0 150 0
0 -75 0 -75 75 0 75 0 0 -150 0 -150 150 0 150 0 0 75 0 75 150 0 150 0 0 -75
0 -75 -75 0 -75 0 0 -300 0 -300 75 0 75 0 0 -75 0 -75 75 0 75 0 0 75 0 75
150 0 150 0 0 75 0 75 -150 0 -150 0 0 -75 0 -75 -75 0 -75 0 0 225 0 225 75
0 75 0 0 -75 0 -75 225 0 225 0 0 -75 0 -75 75 0 75 0 0 75 0 75 -75 0 -75 0
0 75 0 75 75 0 75 0 0 75 0 75 75 0 75 0 0 75 0 75 75 0 75 0 0 -150 0 -150
-75 0 -75 0 0 -75 0 -75 75 0 75 0 0 -225 0 -225 75 0 75 0 0 75 0 75 75 0 75
0 0 225 0 225 150 0 150 0 0 -75 0 -75 -75 0 -75 0 0 -75 0 -75 75 0 75 0 0
75 0 75 150 0 150 0 0 -75 0 -75 -75 0 -75 0 0 -75 0 -75 75 0 75 0 0 75 0 75
75 0 75 0 0 -150 0 -150 75 0 75 0 0 150 0 150 75 0 75 0 0 225 0 225 -75 0
-75 0 0 -225 0 -225 -75 0 -75 0 0 75 0 75 -75 0 -75 0 0 75 0 75 75 0 75 0 0
75 0 75 -75 0 -75 0 0 150 0 150 75 0 75 0 0 -75 0 -75 75 0 75 0 0 75 0 75
75 0 75 0 0 75 0 75 -150 0 -150 0 0 225 0 225 75 0 75 0 0 225 0 225 75 0 75
0 0 150 0 150 -150 0 -150 0 0 75 0 75 -150 0 -150 0 0 75 0 75 -75 0 -75 0 0
-75 0 -75 -75 0 -75 0 0 -75 0 -75 -75 0 -75 0 0 -150 0 -150 225 0 225 0 0
75 0 75 -150 0 -150 0 0 75 0 75 75 0 75 0 0 75 0 75 75 0 75 0 0 -75 0 -75
75 0 75 0 0 -150 0 -150 75 0 75 0 0 -150 0 -150 -75 0 -75 0 0 75 0 75 -225
0 -225 0 0 -300 0 -300 -150 0 -150 0 0 75 0 75 75 0 75 0 0 225 0 225 -75 0
-75 0 0 -75 0 -75 -75 0 -75 0 0 -75 0 -75 75 0 75 0 0 -75 0 -75 -75 0 -75 0
0 -75 0 -75 -75 0 -75 0 0 75 0 75 -75 0 -75 0 0 150 0 150 75 0 75 0 0 75 0
75 75 0 75 0 0 300 0 300 75 0 75 0 0 75 0 75 150 0 150 0 0 150 0 150 -75 0
-75 0 0 75 0 75 -75 0 -75 0 0 -75 0 -75 -75 0 -75 0 0 150 0 150 75 0 75 0 0
75 0 75 -75 0 -75 0 0 300 0 300 -75 0 -75 0 0 75 0 75 150 0 150 0 0 75 0 75
-375 0 -375 0 0 -75 0 -75 75 0 75 0 0 -75 0 -75 -150 0 -150 0 0 150 0 150
-75 0 -75 0 0 -75 0 -75 -75 0 -75 0 0 75 0 75 -75 0 -75 0 0 -75 0 -75 -75 0
-75 0 0 75 0 75 -75 0 -75 0 0 -75 0 -75 -75 0 -75 0 0 75 0 75 -75 0 -75 0 0
-75z m750 -300 l0 -75 -75 0 -75 0 0 -75 0 -75 -75 0 -75 0 0 150 0 150 150 0
150 0 0 -75z m900 -150 l0 -225 -75 0 -75 0 0 -150 0 -150 -75 0 -75 0 0 150
0 150 75 0 75 0 0 150 0 150 -75 0 -75 0 0 -75 0 -75 -75 0 -75 0 0 75 0 75
75 0 75 0 0 75 0 75 150 0 150 0 0 -225z m-450 -375 l0 -150 -75 0 -75 0 0
-75 0 -75 -75 0 -75 0 0 -75 0 -75 -75 0 -75 0 0 225 0 225 -75 0 -75 0 0
-150 0 -150 -75 0 -75 0 0 150 0 150 75 0 75 0 0 75 0 75 300 0 300 0 0 -150z
m600 -75 l0 -75 -75 0 -75 0 0 75 0 75 75 0 75 0 0 -75z m-150 -300 l0 -75
-75 0 -75 0 0 75 0 75 75 0 75 0 0 -75z m-2550 -150 l0 -75 150 0 150 0 0 -75
0 -75 -150 0 -150 0 0 -75 0 -75 -75 0 -75 0 0 75 0 75 75 0 75 0 0 75 0 75
-75 0 -75 0 0 75 0 75 75 0 75 0 0 -75z m750 0 l0 -75 75 0 75 0 0 -75 0 -75
75 0 75 0 0 -75 0 -75 -75 0 -75 0 0 75 0 75 -75 0 -75 0 0 -75 0 -75 -75 0
-75 0 0 -75 0 -75 150 0 150 0 0 -150 0 -150 75 0 75 0 0 150 0 150 150 0 150
0 0 150 0 150 150 0 150 0 0 75 0 75 75 0 75 0 0 -75 0 -75 -75 0 -75 0 0 -75
0 -75 -75 0 -75 0 0 -75 0 -75 -75 0 -75 0 0 -75 0 -75 -75 0 -75 0 0 -75 0
-75 -75 0 -75 0 0 -75 0 -75 -300 0 -300 0 0 -75 0 -75 -75 0 -75 0 0 -150 0
-150 75 0 75 0 0 -75 0 -75 -75 0 -75 0 0 75 0 75 -75 0 -75 0 0 150 0 150
-75 0 -75 0 0 75 0 75 75 0 75 0 0 -75 0 -75 75 0 75 0 0 225 0 225 75 0 75 0
0 -75 0 -75 150 0 150 0 0 75 0 75 -75 0 -75 0 0 75 0 75 -150 0 -150 0 0 75
0 75 75 0 75 0 0 75 0 75 150 0 150 0 0 75 0 75 -75 0 -75 0 0 75 0 75 75 0
75 0 0 -75z m750 0 l0 -75 -75 0 -75 0 0 75 0 75 75 0 75 0 0 -75z m750 0 l0
-75 75 0 75 0 0 -150 0 -150 75 0 75 0 0 150 0 150 150 0 150 0 0 -75 0 -75
-75 0 -75 0 0 -75 0 -75 -75 0 -75 0 0 -300 0 -300 -75 0 -75 0 0 -75 0 -75
-75 0 -75 0 0 -75 0 -75 -75 0 -75 0 0 75 0 75 -150 0 -150 0 0 75 0 75 -75 0
-75 0 0 -150 0 -150 -75 0 -75 0 0 -75 0 -75 -225 0 -225 0 0 -75 0 -75 75 0
75 0 0 -75 0 -75 -75 0 -75 0 0 75 0 75 -75 0 -75 0 0 150 0 150 75 0 75 0 0
75 0 75 75 0 75 0 0 75 0 75 150 0 150 0 0 150 0 150 150 0 150 0 0 -75 0 -75
75 0 75 0 0 75 0 75 75 0 75 0 0 -75 0 -75 150 0 150 0 0 75 0 75 -75 0 -75 0
0 75 0 75 -75 0 -75 0 0 75 0 75 -75 0 -75 0 0 -75 0 -75 -75 0 -75 0 0 75 0
75 75 0 75 0 0 225 0 225 150 0 150 0 0 -75z m-2250 -600 l0 -75 -75 0 -75 0
0 75 0 75 75 0 75 0 0 -75z m750 -600 l0 -75 -75 0 -75 0 0 75 0 75 75 0 75 0
0 -75z m2700 0 l0 -75 75 0 75 0 0 -150 0 -150 -150 0 -150 0 0 225 0 225 75
0 75 0 0 -75z m-1500 -150 l0 -75 75 0 75 0 0 -75 0 -75 75 0 75 0 0 -75 0
-75 150 0 150 0 0 -75 0 -75 -150 0 -150 0 0 -75 0 -75 75 0 75 0 0 -75 0 -75
-75 0 -75 0 0 75 0 75 -225 0 -225 0 0 150 0 150 -75 0 -75 0 0 -75 0 -75 -75
0 -75 0 0 150 0 150 75 0 75 0 0 75 0 75 75 0 75 0 0 75 0 75 75 0 75 0 0 -75z
m-1200 -150 l0 -75 -75 0 -75 0 0 75 0 75 75 0 75 0 0 -75z m2550 -450 l0
-225 -225 0 -225 0 0 225 0 225 225 0 225 0 0 -225z m-1950 0 l0 -75 -75 0
-75 0 0 75 0 75 75 0 75 0 0 -75z m2250 -300 l0 -75 -75 0 -75 0 0 75 0 75 75
0 75 0 0 -75z m-750 -150 l0 -75 -75 0 -75 0 0 75 0 75 75 0 75 0 0 -75z"/>
<path d="M2610 3915 l0 -75 75 0 75 0 0 75 0 75 -75 0 -75 0 0 -75z"/>
<path d="M2910 3315 l0 -75 75 0 75 0 0 75 0 75 -75 0 -75 0 0 -75z"/>
<path d="M3060 3015 l0 -75 75 0 75 0 0 75 0 75 -75 0 -75 0 0 -75z"/>
<path d="M2610 1815 l0 -75 75 0 75 0 0 75 0 75 -75 0 -75 0 0 -75z"/>
<path d="M2910 1665 l0 -75 75 0 75 0 0 75 0 75 -75 0 -75 0 0 -75z"/>
<path d="M3810 1515 l0 -75 75 0 75 0 0 75 0 75 -75 0 -75 0 0 -75z"/>
<path d="M3810 4365 l0 -525 525 0 525 0 0 525 0 525 -525 0 -525 0 0 -525z
m900 0 l0 -375 -375 0 -375 0 0 375 0 375 375 0 375 0 0 -375z"/>
<path d="M4110 4365 l0 -225 225 0 225 0 0 225 0 225 -225 0 -225 0 0 -225z"/>
<path d="M1710 3915 l0 -75 75 0 75 0 0 75 0 75 -75 0 -75 0 0 -75z"/>
<path d="M4110 3540 l0 -150 75 0 75 0 0 75 0 75 150 0 150 0 0 75 0 75 -225
0 -225 0 0 -150z"/>
<path d="M4710 3540 l0 -150 -150 0 -150 0 0 -75 0 -75 150 0 150 0 0 -75 0
-75 75 0 75 0 0 75 0 75 -75 0 -75 0 0 75 0 75 75 0 75 0 0 150 0 150 -75 0
-75 0 0 -150z"/>
<path d="M510 1065 l0 -525 525 0 525 0 0 525 0 525 -525 0 -525 0 0 -525z
m900 0 l0 -375 -375 0 -375 0 0 375 0 375 375 0 375 0 0 -375z"/>
<path d="M810 1065 l0 -225 225 0 225 0 0 225 0 225 -225 0 -225 0 0 -225z"/>
<path d="M1710 840 l0 -300 75 0 75 0 0 75 0 75 150 0 150 0 0 75 0 75 -75 0
-75 0 0 75 0 75 -75 0 -75 0 0 75 0 75 -75 0 -75 0 0 -300z"/>
<path d="M3210 615 l0 -75 75 0 75 0 0 75 0 75 -75 0 -75 0 0 -75z"/>
<path d="M3960 615 l0 -75 75 0 75 0 0 75 0 75 -75 0 -75 0 0 -75z"/>
</g>
</g></svg>
